<svg id="Layer_1" data-name="Layer 1" xmlns="http://www.w3.org/2000/svg" viewBox="0 0 400 400"><defs><style>.cls-1{fill:#fff;}</style></defs><title>fiverr_logo</title><path class="cls-1" d="M352.8,159.4h-.9v2.7h.9a1.13,1.13,0,0,0,1.2-1.4C354,159.8,353.6,159.4,352.8,159.4Z"/><path class="cls-1" d="M200,0C89.54,0,0,89.54,0,200S89.54,400,200,400s200-89.54,200-200S310.46,0,200,0ZM104.6,154a9,9,0,1,1-9,9A9,9,0,0,1,104.6,154ZM121,233.5H88.3V220h7V191.5H72.8V220H81v13.5H47.2V220h7V191.5H46.7V178h7.5v-2.3c0-18.2,15.9-20.6,24.5-20.6a51.72,51.72,0,0,1,6.6.4v14.6a24.25,24.25,0,0,0-4.5-.3c-2.7,0-8,.1-8,5.4v2.7H114V220h7Zm41.4-.1h-22l-15.4-42h-6.2V177.9h29.5v13.5h-5l6.4,20a31.91,31.91,0,0,1,1.5,7.3h.4a31.91,31.91,0,0,1,1.5-7.3l6.4-20h-5V177.9H184v13.5h-6.2Zm76.2-30c0,1.8-.5,5.6-.4,5.7H203c1.4,7.1,7,10.2,12.9,10.2,8.2,0,15.6-5.3,15.6-5.3l6.8,12.9s-8.9,7.8-23.9,7.8c-19.8,0-30.5-14.3-30.5-29.1,0-16.3,11-29,28.9-29,16.5,0,25.8,11.4,25.8,26.8Zm49.6-7.9a21.36,21.36,0,0,0-3.8-.3c-10.3,0-15.3,6.6-15.3,16.7V220h7.5v13.5H242.9V220h7.5V193.8a2.21,2.21,0,0,0-2.4-2.4h-5.2V177.9h17.5c5.1,0,7.9,2,7.9,7.1v2.9a17.27,17.27,0,0,1-.2,2.8h.2c2.3-7.6,9.3-13.8,17.8-13.7a14.1,14.1,0,0,1,2.2.2Zm49.3,0a21.36,21.36,0,0,0-3.8-.3c-10.3,0-15.3,6.6-15.3,16.7V220h7.5v13.5H292.2V220h7.5V193.8a2.21,2.21,0,0,0-2.4-2.4h-5.2V177.9h17.5c5.1,0,7.9,2,7.9,7.1v2.9a17.27,17.27,0,0,1-.2,2.8h.2c2.4-7.6,9.4-13.8,17.8-13.7a14.1,14.1,0,0,1,2.2.2Zm15.1-20.8a12,12,0,1,1,11.8-12A11.85,11.85,0,0,1,352.6,174.7Z"/><path class="cls-1" d="M352.6,154.1c-4.5,0-8,3.8-8,8.6s3.5,8.7,8,8.7,8.2-3.8,8.2-8.7A8.33,8.33,0,0,0,352.6,154.1Zm1.8,14.2-1.6-3.8h-.9v3.8h-3.5V157h5.3c2.5,0,4,1.4,4,3.7a3.1,3.1,0,0,1-1.9,3,2.29,2.29,0,0,1,.3.7l2.1,3.9Z"/><path class="cls-1" d="M212.3,190.6c-5.3,0-7.9,3.9-8.9,8.2h15.9C219.3,194.4,216.4,190.6,212.3,190.6Z"/></svg>